# xmcd CD database file
#
# Track frame offsets:
#	182
#	34115
#	122060
#	178692
#	244907
#	308612
#
# Disc length: 4477 seconds
#
# Revision: 0
# Processed by: cddbd v1.4PL0 Copyright (c) Steve Scherf et al.
# Submitted via: CDex 1.50beta9
#
DISCID=48117b06
DTITLE=Jos Ghysen - Conférences
DYEAR=1900
DGENRE=
TTITLE0=Conférence Het Leger
TTITLE1=Conférence 1
TTITLE2=Conférence 2
TTITLE3=Conférence 3
TTITLE4=Conférence 4
TTITLE5=Afscheid Van Het Hasselts Dialect
EXTD=
EXTT0=
EXTT1=
EXTT2=
EXTT3=
EXTT4=
EXTT5=
PLAYORDER=
